<svg xmlns="http://www.w3.org/2000/svg" viewBox="0 0 1200 800"><rect width="1200" height="800" fill="#c8ccb9"/><circle cx="940" cy="160" r="78" fill="#f2dca9"/><path d="M0 435q160-190 315 0 155-260 330 0 180-225 350-15 110-135 205 5v375H0z" fill="#35513c"/><g transform="translate(260 270)"><rect x="0" y="120" width="690" height="320" fill="#85583a"/><path d="M-55 135L345 0l400 135z" fill="#343028"/><rect x="75" y="195" width="205" height="145" fill="#d5b779"/><rect x="395" y="190" width="145" height="250" fill="#432f26"/><path d="M-70 440h830v26H-70z" fill="#493729"/></g><path d="M0 710q260-70 520 0t680-5v95H0z" fill="#7d8d62"/></svg>
