<svg xmlns="http://www.w3.org/2000/svg" viewBox="0 0 1200 800"><defs><linearGradient id="a" x2="0" y2="1"><stop stop-color="#b9c4b4"/><stop offset="1" stop-color="#e8d7b6"/></linearGradient><linearGradient id="w" x2="0" y2="1"><stop stop-color="#81988b"/><stop offset="1" stop-color="#304b40"/></linearGradient></defs><rect width="1200" height="800" fill="url(#a)"/><path d="M0 385L150 190l125 145 170-235 180 300 160-195 130 190 150-255 155 250v160H0z" fill="#315141"/><rect y="555" width="1200" height="245" fill="url(#w)"/><g transform="translate(390 280)"><rect y="100" width="430" height="240" fill="#724a32"/><path d="M-35 105L215 0l250 105z" fill="#302820"/><rect x="55" y="155" width="120" height="95" fill="#e2bd7b"/><rect x="225" y="145" width="110" height="195" fill="#392921"/><path d="M-90 340h600v22H-90z" fill="#473326"/></g><path d="M0 650q370-45 710 5t490-5" fill="none" stroke="#d9c7a3" stroke-width="5" opacity=".35"/></svg>
