<svg xmlns="http://www.w3.org/2000/svg" viewBox="0 0 1200 800"><rect width="1200" height="800" fill="#abb9aa"/><path d="M0 430L140 220l120 185 130-260 160 270 140-180 145 190 160-240 225 245v370H0z" fill="#244234"/><g transform="translate(135 245)"><rect y="145" width="930" height="345" fill="#754b34"/><path d="M-65 155L465 0l530 155z" fill="#302820"/><rect x="70" y="220" width="220" height="155" fill="#d2ad6e"/><rect x="355" y="215" width="220" height="160" fill="#d2ad6e"/><rect x="690" y="205" width="145" height="285" fill="#3b2a22"/><path d="M-80 490h1090v28H-80z" fill="#473225"/></g><path d="M0 730q340-80 620-5t580-10v85H0z" fill="#5f764e"/></svg>
