<svg xmlns="http://www.w3.org/2000/svg" viewBox="0 0 1200 800"><defs><linearGradient id="s" x2="0" y2="1"><stop stop-color="#9dad9f"/><stop offset="1" stop-color="#dbc7a7"/></linearGradient></defs><rect width="1200" height="800" fill="url(#s)"/><path d="M0 420L155 205l135 190 170-280 160 285 130-190 170 215 115-175 165 200v350H0z" fill="#284536"/><g transform="translate(170 310)"><rect y="100" width="800" height="290" fill="#765039"/><path d="M-60 110L400 0l460 110z" fill="#332a23"/><rect x="70" y="155" width="255" height="160" fill="#d1b578"/><rect x="375" y="150" width="155" height="240" fill="#463127"/><path d="M-105 390h1010v28H-105z" fill="#493428"/><path d="M25 418v75m710-75v75" stroke="#493428" stroke-width="22"/></g><path d="M0 730q500-80 1200 0v70H0z" fill="#667a51"/></svg>
